HIERARCHY
ROOT Hips
{
	OFFSET 0.00000 0.00000 0.00000
	CHANNELS 6 Xposition Yposition Zposition Zrotation Yrotation Xrotation 
	JOINT LHipJoint
	{
		OFFSET 0 0 0
		CHANNELS 3 Zrotation Yrotation Xrotation
		JOINT LeftUpLeg
		{
			OFFSET 1.28858 -1.83292 1.03970
			CHANNELS 3 Zrotation Yrotation Xrotation
			JOINT LeftLeg
			{
				OFFSET 2.47846 -6.80952 0.00000
				CHANNELS 3 Zrotation Yrotation Xrotation
				JOINT LeftFoot
				{
					OFFSET 2.75274 -7.56311 0.00000
					CHANNELS 3 Zrotation Yrotation Xrotation
					JOINT LeftToeBase
					{
						OFFSET 0.12848 -0.35301 1.68223
						CHANNELS 3 Zrotation Yrotation Xrotation
						End Site
						{
							OFFSET 0.00000 -0.00000 0.87311
						}
					}
				}
			}
		}
	}
	JOINT RHipJoint
	{
		OFFSET 0 0 0
		CHANNELS 3 Zrotation Yrotation Xrotation
		JOINT RightUpLeg
		{
			OFFSET -1.31183 -1.83292 1.03970
			CHANNELS 3 Zrotation Yrotation Xrotation
			JOINT RightLeg
			{
				OFFSET -2.44740 -6.72417 0.00000
				CHANNELS 3 Zrotation Yrotation Xrotation
				JOINT RightFoot
				{
					OFFSET -2.67343 -7.34519 0.00000
					CHANNELS 3 Zrotation Yrotation Xrotation
					JOINT RightToeBase
					{
						OFFSET -0.16914 -0.46471 1.77626
						CHANNELS 3 Zrotation Yrotation Xrotation
						End Site
						{
							OFFSET -0.00000 -0.00000 0.92777
						}
					}
				}
			}
		}
	}
	JOINT LowerBack
	{
		OFFSET 0 0 0
		CHANNELS 3 Zrotation Yrotation Xrotation
		JOINT Spine
		{
			OFFSET 0.01249 2.14252 0.03842
			CHANNELS 3 Zrotation Yrotation Xrotation
			JOINT Spine1
			{
				OFFSET -0.02957 2.14199 -0.03751
				CHANNELS 3 Zrotation Yrotation Xrotation
				JOINT Neck
				{
					OFFSET 0 0 0
					CHANNELS 3 Zrotation Yrotation Xrotation
					JOINT Neck1
					{
						OFFSET -0.01678 1.65709 -0.05476
						CHANNELS 3 Zrotation Yrotation Xrotation
						JOINT Head
						{
							OFFSET 0.07912 1.58331 -0.11843
							CHANNELS 3 Zrotation Yrotation Xrotation
							End Site
							{
								OFFSET 0.03298 1.73940 -0.04271
							}
						}
					}
				}
				JOINT LeftShoulder
				{
					OFFSET 0 0 0
					CHANNELS 3 Zrotation Yrotation Xrotation
					JOINT LeftArm
					{
						OFFSET 3.39556 1.16496 0.08673
						CHANNELS 3 Zrotation Yrotation Xrotation
						JOINT LeftForeArm
						{
							OFFSET 5.23910 -0.00000 -0.00000
							CHANNELS 3 Zrotation Yrotation Xrotation
							JOINT LeftHand
							{
								OFFSET 3.31467 -0.00000 0.00000
								CHANNELS 3 Zrotation Yrotation Xrotation
								JOINT LeftFingerBase
								{
									OFFSET 0 0 0
									CHANNELS 3 Zrotation Yrotation Xrotation
									JOINT LeftHandIndex1
									{
										OFFSET 0.96590 -0.00000 0.00000
										CHANNELS 3 Zrotation Yrotation Xrotation
										End Site
										{
											OFFSET 0.77873 -0.00000 0.00000
										}
									}
								}
								JOINT LThumb
								{
									OFFSET 0 0 0
									CHANNELS 3 Zrotation Yrotation Xrotation
									End Site
									{
										OFFSET 0.79062 -0.00000 0.79062
									}
								}
							}
						}
					}
				}
				JOINT RightShoulder
				{
					OFFSET 0 0 0
					CHANNELS 3 Zrotation Yrotation Xrotation
					JOINT RightArm
					{
						OFFSET -3.27193 1.31331 0.33940
						CHANNELS 3 Zrotation Yrotation Xrotation
						JOINT RightForeArm
						{
							OFFSET -5.30252 -0.00000 0.00000
							CHANNELS 3 Zrotation Yrotation Xrotation
							JOINT RightHand
							{
								OFFSET -3.67875 -0.00000 0.00000
								CHANNELS 3 Zrotation Yrotation Xrotation
								JOINT RightFingerBase
								{
									OFFSET 0 0 0
									CHANNELS 3 Zrotation Yrotation Xrotation
									JOINT RightHandIndex1
									{
										OFFSET -0.59481 -0.00000 0.00000
										CHANNELS 3 Zrotation Yrotation Xrotation
										End Site
										{
											OFFSET -0.47955 -0.00000 0.00000
										}
									}
								}
								JOINT RThumb
								{
									OFFSET 0 0 0
									CHANNELS 3 Zrotation Yrotation Xrotation
									End Site
									{
										OFFSET -0.48687 -0.00000 0.48687
									}
								}
							}
						}
					}
				}
			}
		}
	}
}
MOTION
Frames: 12
Frame Time: .0083333
10.3814 20.3278 -15.9449 0 0 0 0 0 0 -21 0 0 0 0 0 0 0 0 0 0 0 0 0 0 21 0 0 0 0 0 0 0 0 0 0 0 0 0 0 0 0 0 0 0 0 0 0 -16 0 0 21 0 0 11 0 0 0 -8 0 0 0 0 0 0 0 0 0 0 0 0 0 0 0 0 0 0 0 0 8 0 0 0 0 0 0 0 0 0 0 0 0 0 0 0 0 0
10.3814 20.3278 -15.9449 -4.2381 -6.7843 4.6973 0.0000 0.0000 0.0000 -11.1910 -10.5370 -15.9847 5.2412 13.6504 41.8545 2.0267 -17.7392 -26.7047 0.1144 2.1809 6.0060 0.0000 0.0000 0.0000 22.2512 12.0435 -9.2042 -2.5259 -9.8849 28.6049 -2.4759 2.6013 -29.1172 -0.8554 -5.8982 16.4894 3.2692 -1.0352 -7.3066 0.4033 -1.7211 1.9046 -1.6275 -0.7362 6.0097 -7.6738 -7.4314 -0.2243 12.1489 -10.4643 4.7786 4.5876 -5.1266 2.4990 0.0000 0.0000 0.0000 -85.3571 -2.0951 5.7039 16.7199 -26.4870 -3.9616 -0.0000 0.0000 -161.9650 28.5663 10.2579 5.5379 -7.1250 0.0000 -0.0000 1.3738 41.6190 -0.1146 0.0000 0.0000 0.0000 84.4387 -6.7652 13.7006 -17.5600 27.5900 -4.3435 0.0000 -0.0000 -5.8007 13.6072 -46.3060 -9.9272 7.1250 -0.0000 -0.0000 66.9935 -64.1982 -38.8205
10.3761 20.3348 -15.9614 -4.1113 -6.4700 4.8182 0.0000 0.0000 0.0000 -11.1877 -10.3231 -16.3678 5.2437 13.6531 41.8653 1.9495 -17.6510 -26.2427 0.0683 1.6865 4.6401 0.0000 0.0000 0.0000 22.1785 12.2294 -9.2906 -2.5161 -9.8672 28.5477 -2.5026 2.1642 -29.3829 -0.8218 -5.7843 16.1598 3.0239 -1.1500 -7.2774 0.3865 -1.8472 1.8411 -1.5210 -0.8091 5.9259 -7.6316 -7.3982 0.0314 12.1464 -10.4145 4.5836 4.5965 -5.1138 2.3918 -0.0000 -0.0000 0.0000 -85.2829 -2.1323 5.6794 16.7188 -26.4856 -3.9611 -0.0000 0.0000 -161.9140 28.8077 9.8196 5.3580 -7.1250 0.0000 -0.0000 1.6162 41.1481 -0.1536 -0.0000 -0.0000 0.0000 84.5117 -7.0292 15.3258 -17.4194 27.4073 -4.2786 0.0000 -0.0000 -3.8889 10.8275 -46.5567 -7.9057 7.1250 -0.0000 -0.0000 65.3034 -65.1525 -38.7277
10.3725 20.3402 -15.9777 -4.0116 -6.1327 4.9137 0.0000 0.0000 0.0000 -11.1719 -10.2716 -16.6549 5.2372 13.6461 41.8377 1.8834 -17.7369 -25.8842 0.0577 1.5497 4.2627 0.0000 0.0000 0.0000 22.1137 12.3330 -9.3873 -2.5126 -9.8608 28.5270 -2.5304 1.8716 -29.6235 -0.8282 -5.8061 16.2228 2.8024 -1.2733 -7.1640 0.3952 -1.9846 1.7349 -1.3993 -0.8889 5.7501 -7.5731 -7.3632 0.3198 12.0616 -10.3683 4.4937 4.5776 -5.1029 2.3053 0.0000 0.0000 0.0000 -85.2750 -1.9959 5.7269 16.7719 -26.5561 -3.9848 -0.0000 0.0000 -161.9750 28.8148 9.7909 5.3442 -7.1250 0.0000 -0.0000 1.6241 41.1164 -0.1556 0.0000 0.0000 0.0000 84.5603 -7.3518 16.8450 -17.2947 27.2447 -4.2214 0.0000 -0.0000 -1.9748 7.8835 -47.2407 -5.8050 7.1250 -0.0000 -0.0000 64.3314 -66.3904 -39.5504
10.3625 20.3500 -16.0076 -3.9273 -5.4019 5.0940 0.0000 0.0000 0.0000 -10.9943 -10.1822 -17.2363 5.2316 13.6400 41.8140 1.7063 -18.1035 -24.9499 0.0557 1.5232 4.1897 0.0000 0.0000 0.0000 22.1417 12.6279 -9.4792 -2.5096 -9.8554 28.5096 -2.6181 1.4174 -30.2664 -0.9255 -6.1288 17.1587 2.4467 -1.5464 -6.9027 0.4946 -2.3092 1.5448 -1.1222 -1.0700 5.4049 -7.5426 -7.3679 0.3893 11.8772 -10.3719 4.5485 4.5189 -5.1083 2.2991 0.0000 -0.0000 0.0000 -85.3392 -1.8414 5.8067 16.8365 -26.6418 -4.0138 -0.0000 0.0000 -162.1310 28.7655 9.8814 5.3818 -7.1250 0.0000 -0.0000 1.5750 41.2138 -0.1471 0.0000 -0.0000 0.0000 84.5264 -7.8007 19.1081 -17.1446 27.0480 -4.1529 0.0000 0.0000 0.6580 3.1484 -48.8324 -2.3711 7.1250 -0.0000 -0.0000 64.1094 -68.6647 -42.2103
10.3589 20.3557 -16.0216 -3.9451 -5.1223 5.2609 0.0000 0.0000 0.0000 -10.8197 -9.9350 -17.6525 5.2252 13.6330 41.7869 1.5879 -18.3756 -24.3279 0.0626 1.6145 4.4415 0.0000 0.0000 0.0000 22.1825 12.6762 -9.6488 -2.5098 -9.8557 28.5106 -2.6447 1.3095 -30.4527 -0.9676 -6.2626 17.5484 2.3522 -1.6284 -6.8407 0.5528 -2.4088 1.4275 -1.0156 -1.1264 5.2495 -7.4874 -7.5622 0.3612 11.6818 -10.6131 4.4511 4.4399 -5.2313 2.2859 0.0000 0.0000 0.0000 -85.3709 -1.7563 5.8693 16.8322 -26.6361 -4.0118 -0.0000 0.0000 -162.3190 28.8417 9.9720 5.4475 -7.1250 0.0000 -0.0000 1.6379 41.3240 -0.1486 0.0000 0.0000 0.0000 84.5315 -8.2016 21.2150 -17.0382 26.9081 -4.1046 0.0000 0.0000 3.0393 -1.8563 -50.5600 1.4338 7.1250 -0.0000 -0.0000 64.8203 -71.1234 -45.7485
10.3661 20.3532 -16.0152 -3.8866 -5.3291 5.2166 0.0000 0.0000 0.0000 -10.9824 -9.9985 -17.4876 5.2219 13.6294 41.7728 1.6466 -18.2583 -24.6418 0.0660 1.6569 4.5584 0.0000 0.0000 0.0000 22.0404 12.4260 -9.7049 -2.5089 -9.8542 28.5057 -2.6000 1.5193 -30.1312 -0.9145 -6.0933 17.0552 2.3927 -1.5404 -6.8957 0.4902 -2.2940 1.4529 -1.0929 -1.0663 5.3070 -7.4578 -7.7415 0.3873 11.6455 -10.8419 4.3013 4.4168 -5.3488 2.2566 0.0000 0.0000 0.0000 -85.3282 -1.6355 6.0628 16.8765 -26.6947 -4.0317 -0.0000 0.0000 -162.5970 28.9192 10.1093 5.5388 -7.1250 0.0000 -0.0000 1.6992 41.4871 -0.1473 0.0000 0.0000 0.0000 84.5667 -8.1982 21.1363 -16.9973 26.8542 -4.0861 0.0000 0.0000 3.1138 -2.0324 -49.3284 1.5418 7.1250 -0.0000 -0.0000 61.4891 -70.6453 -42.3461
10.3706 20.3502 -16.0090 -3.8494 -5.4951 5.1346 0.0000 0.0000 0.0000 -11.1094 -10.0851 -17.2902 5.2229 13.6305 41.7769 1.7100 -18.1302 -24.9795 0.0593 1.5714 4.3226 0.0000 0.0000 0.0000 21.9635 12.3192 -9.6601 -2.5071 -9.8508 28.4949 -2.5723 1.6495 -29.9318 -0.8826 -5.9890 16.7525 2.4062 -1.4858 -6.9075 0.4485 -2.2209 1.4728 -1.1364 -1.0285 5.3349 -7.4168 -7.6480 0.5088 11.5902 -10.7134 4.2453 4.4064 -5.2902 2.2022 0.0000 -0.0000 0.0000 -85.2856 -1.5521 6.1581 16.8989 -26.7243 -4.0418 -0.0000 0.0000 -162.7070 28.8727 10.2726 5.6161 -7.1250 0.0000 -0.0000 1.6478 41.6672 -0.1355 0.0000 -0.0000 0.0000 84.5902 -8.2055 21.1464 -16.9713 26.8199 -4.0744 0.0000 0.0000 3.1445 -2.1526 -48.5960 1.6149 7.1250 -0.0000 -0.0000 59.5753 -70.3367 -40.4007
10.3719 20.3494 -16.0113 -3.9341 -5.4428 5.1332 0.0000 0.0000 0.0000 -11.0111 -10.1546 -17.2915 5.2272 13.6352 41.7954 1.7055 -18.1686 -24.9644 0.0610 1.5931 4.3823 0.0000 0.0000 0.0000 22.0744 12.4014 -9.6232 -2.5044 -9.8459 28.4790 -2.5824 1.5695 -30.0131 -0.8906 -6.0152 16.8286 2.4606 -1.5117 -6.8288 0.4867 -2.2586 1.4149 -1.1277 -1.0481 5.2278 -7.4549 -7.5766 0.5871 11.5973 -10.6244 4.2855 4.4215 -5.2482 2.1948 0.0000 -0.0000 0.0000 -85.2810 -1.5106 6.1102 16.8434 -26.6509 -4.0169 -0.0000 0.0000 -162.7020 28.8191 10.1367 5.5308 -7.1250 0.0000 -0.0000 1.6079 41.5079 -0.1385 0.0000 -0.0000 0.0000 84.5613 -8.2957 21.2303 -16.9881 26.8421 -4.0820 0.0000 0.0000 3.1205 -2.1912 -48.3716 1.6382 7.1250 -0.0000 -0.0000 58.9990 -70.2384 -39.8161
10.3733 20.3490 -16.0151 -4.0132 -5.3826 5.1391 0.0000 0.0000 0.0000 -10.9155 -10.2354 -17.3037 5.2329 13.6414 41.8194 1.7069 -18.2020 -24.9825 0.0591 1.5686 4.3148 0.0000 0.0000 0.0000 22.1784 12.4671 -9.5891 -2.5000 -9.8379 28.4534 -2.5957 1.4924 -30.1133 -0.9015 -6.0511 16.9327 2.5137 -1.5273 -6.7348 0.5188 -2.2812 1.3530 -1.1224 -1.0606 5.1082 -7.4816 -7.5488 0.5606 11.6211 -10.5941 4.3671 4.4317 -5.2309 2.2228 -0.0000 0.0000 0.0000 -85.2903 -1.4592 6.0415 16.8103 -26.6071 -4.0020 -0.0000 0.0000 -162.6260 28.8233 9.9184 5.4145 -7.1250 0.0000 -0.0000 1.6244 41.2615 -0.1498 -0.0000 0.0000 0.0000 84.5382 -8.4022 21.2929 -17.0098 26.8707 -4.0918 0.0000 0.0000 3.0677 -2.1259 -48.2511 1.5864 7.1250 -0.0000 -0.0000 58.7593 -70.1557 -39.5268
10.3747 20.3497 -16.0183 -4.0502 -5.3364 5.1403 0.0000 0.0000 0.0000 -10.8702 -10.2955 -17.3108 5.2361 13.6448 41.8330 1.7117 -18.1887 -25.0066 0.0572 1.5434 4.2454 0.0000 0.0000 0.0000 22.2168 12.4358 -9.5912 -2.4968 -9.8320 28.4344 -2.5962 1.4249 -30.1342 -0.8896 -6.0119 16.8191 2.5485 -1.5210 -6.6851 0.5191 -2.2735 1.3188 -1.1384 -1.0570 5.0431 -7.5368 -7.5166 0.5876 11.7147 -10.5576 4.3705 4.4714 -5.2130 2.2236 -0.0000 0.0000 0.0000 -85.2717 -1.4523 5.9868 16.7700 -26.5536 -3.9840 -0.0000 0.0000 -162.5610 28.8625 9.8234 5.3721 -7.1250 0.0000 -0.0000 1.6649 41.1578 -0.1578 -0.0000 0.0000 0.0000 84.5443 -8.4429 21.2691 -16.9890 26.8433 -4.0824 0.0000 0.0000 3.0470 -2.0103 -48.0430 1.4952 7.1250 -0.0000 -0.0000 58.3530 -70.0105 -39.0324
10.3760 20.3496 -16.0213 -4.0873 -5.2893 5.1414 0.0000 0.0000 0.0000 -10.8230 -10.3268 -17.3337 5.2359 13.6446 41.8322 1.7050 -18.1869 -24.9666 0.0647 1.6410 4.5145 0.0000 0.0000 0.0000 22.2592 12.4376 -9.5934 -2.4970 -9.8324 28.4357 -2.5931 1.3222 -30.1431 -0.8662 -5.9346 16.5947 2.5650 -1.5177 -6.6654 0.5270 -2.2699 1.3044 -1.1383 -1.0554 5.0167 -7.6212 -7.4230 0.5817 11.8547 -10.4440 4.4322 4.5310 -5.1544 2.2432 -0.0000 0.0000 0.0000 -85.2243 -1.4940 6.0168 16.7438 -26.5188 -3.9723 -0.0000 0.0000 -162.5000 28.9490 9.6882 5.3182 -7.1250 0.0000 -0.0000 1.7495 41.0133 -0.1721 -0.0000 0.0000 0.0000 84.5368 -8.4712 21.2574 -17.0008 26.8589 -4.0877 0.0000 0.0000 2.9877 -1.9864 -47.9744 1.4758 7.1250 -0.0000 -0.0000 58.2092 -69.9672 -38.8671
